<svg xmlns="http://www.w3.org/2000/svg" width="177.278" height="56.376" viewBox="0 0 177.278 56.376">
  <g id="Group_20291" data-name="Group 20291" transform="translate(-64.156 -50)">
    <g id="Group_20291-2" data-name="Group 20291" transform="translate(132.545 82.057)">
      <path id="Path_22981" data-name="Path 22981" d="M313.94,138.007c-.552-.7-1.058-1.341-1.713-2.176a.979.979,0,0,0-.781-.36H305.5a1.413,1.413,0,0,0-.88.332c-1.018.841-1.8,1.485-2.658,2.193l-1.432,1.18a1.465,1.465,0,0,0-.5.8l-1.236,5.813a1.024,1.024,0,0,0,.177.85c1,1.271,1.655,2.1,2.656,3.372a.984.984,0,0,0,.784.36h5.945a1.41,1.41,0,0,0,.876-.332c1.542-1.274,2.545-2.1,4.09-3.372a1.464,1.464,0,0,0,.5-.8l1.236-5.813a1.02,1.02,0,0,0-.177-.85Zm-1.9,1.6-1.391,6.545a1.528,1.528,0,0,1-1.418,1.172h-6.547a.875.875,0,0,1-.7-.308.921.921,0,0,1-.159-.788l1.391-6.545a1.527,1.527,0,0,1,1.418-1.172h6.548a.874.874,0,0,1,.7.308A.922.922,0,0,1,312.035,139.611Z" transform="translate(-278.982 -135.405)" fill="#ff2a6d"/>
      <path id="Path_22982" data-name="Path 22982" d="M506.959,139.106c-.64-.814-1.14-1.448-1.692-2.149l-.81-1.027a1.251,1.251,0,0,0-1-.459H493.143l-3.167,14.9h10.4a1.793,1.793,0,0,0,1.13-.428l3.857-3.181a1.861,1.861,0,0,0,.647-1.035l1.177-5.54A1.307,1.307,0,0,0,506.959,139.106Zm-3.051,1.822-.831,3.911a3.248,3.248,0,0,1-3.016,2.49h-6.319l1.874-8.814h6.4a1.928,1.928,0,0,1,1.54.683A2.023,2.023,0,0,1,503.907,140.928Z" transform="translate(-398.326 -135.405)" fill="#ff2a6d"/>
      <path id="Path_22983" data-name="Path 22983" d="M260.152,136.249a.8.8,0,0,0-.637-.29H249.21l-3.09,14.535h10.306a1.231,1.231,0,0,0,.76-.29l4.205-3.468a.838.838,0,0,0,.293-.464l.277-1.3a.519.519,0,0,0-.239-.58l-1.025-.573c-.433-.241-.285-.935.251-1.179.459-.2.939-.421,1.263-.566a.868.868,0,0,0,.491-.59l.275-1.294a.558.558,0,0,0-.095-.468Zm-1.523,9.94a2.059,2.059,0,0,1-.722,1.15,1.986,1.986,0,0,1-1.251.478h-7.223l.691-3.251h7.223A1.276,1.276,0,0,1,258.629,146.189Zm1.26-5.928a2.058,2.058,0,0,1-.722,1.149,1.988,1.988,0,0,1-1.251.478h-7.223l.691-3.251h7.223A1.276,1.276,0,0,1,259.889,140.26Z" transform="translate(-246.12 -135.709)" fill="#ff2a6d"/>
      <path id="Path_22984" data-name="Path 22984" d="M361.876,145.737a1.931,1.931,0,0,1-1.793,1.482,1.119,1.119,0,0,1-.9-.407,1.186,1.186,0,0,1-.194-1l.993-4.671h-3.053l-.977,4.595a1.932,1.932,0,0,1-1.793,1.482,1.111,1.111,0,0,1-.905-.409,1.176,1.176,0,0,1-.2-1l2.235-10.518h-3.051l-2.25,10.587a.74.74,0,0,0,.129.617l2.808,3.567a.713.713,0,0,0,.568.262h1.3a1.022,1.022,0,0,0,.809-.439l.814-1.144a.633.633,0,0,1,.595-.281.306.306,0,0,1,.258.225l.326,1.143a.691.691,0,0,0,.688.5h1.295a.991.991,0,0,0,.624-.235l4.324-3.567a1.021,1.021,0,0,0,.355-.569l2.266-10.663H364.1Z" transform="translate(-310.938 -135.295)" fill="#ff2a6d"/>
      <path id="Path_22985" data-name="Path 22985" d="M445.9,135.8l-3.972,3.275a1.891,1.891,0,0,0-.647,1.035l-1.178,5.54a1.3,1.3,0,0,0,.224,1.083l2.581,3.277a.979.979,0,0,0,.781.36h10.454l.647-3.045H444.335a1.18,1.18,0,0,1-.943-.416,1.241,1.241,0,0,1-.216-1.062,2.026,2.026,0,0,1,1.881-1.554h4.527l.647-3.044h-4.753a1.063,1.063,0,0,1-.849-.374,1.118,1.118,0,0,1-.194-.956,1.834,1.834,0,0,1,1.7-1.407h10.52l.646-3.044H446.776A1.4,1.4,0,0,0,445.9,135.8Z" transform="translate(-367.175 -135.405)" fill="#ff2a6d"/>
      <path id="Path_22986" data-name="Path 22986" d="M407.165,135.471h-3.119l-2.222,10.455a.743.743,0,0,0,.131.619c.69.874,1.209,1.534,1.777,2.256l1.027,1.305a.721.721,0,0,0,.574.266h7.1l.647-3.045h-8.435Z" transform="translate(-343.293 -135.405)" fill="#ff2a6d"/>
    </g>
    <g id="Group_20294" data-name="Group 20294" transform="translate(64.156 50)">
      <g id="Group_20293" data-name="Group 20293" transform="translate(0 0)">
        <path id="Path_22987" data-name="Path 22987" d="M114.837,100.681a19.437,19.437,0,0,1-27.491,0L65.532,78.85a1.943,1.943,0,0,1,1.377-3.316h4.7a1.944,1.944,0,0,0,1.772-2.744l-9.045-20.04a1.944,1.944,0,0,1,2.572-2.571l20.037,9.047a1.944,1.944,0,0,0,2.744-1.772v-4.7A1.943,1.943,0,0,1,93,51.374c8.241,8.237,21.693,21.674,21.835,21.816A19.444,19.444,0,0,1,114.837,100.681Z" transform="translate(-64.156 -50)" fill="#fff"/>
        <g id="Group_20292" data-name="Group 20292" transform="translate(21.909 21.91)">
          <path id="Path_22988" data-name="Path 22988" d="M141,126.847a19.055,19.055,0,0,0,5.56-14.437,2.226,2.226,0,0,0-1.016-1.768A15.034,15.034,0,0,0,124.8,131.4a2.226,2.226,0,0,0,1.771,1.016A19.158,19.158,0,0,0,141,126.847Z" transform="translate(-122.449 -108.298)" fill="#ff296d"/>
          <path id="Path_22989" data-name="Path 22989" d="M161.5,126.617a.375.375,0,0,0-.689.171,22.09,22.09,0,0,1-19.894,19.88.376.376,0,0,0-.171.689,15.036,15.036,0,0,0,20.753-20.74Z" transform="translate(-133.762 -119.625)" fill="#ff296d"/>
        </g>
      </g>
      <path id="Path_22990" data-name="Path 22990" d="M190.3,50l.713,2.995a2.445,2.445,0,0,0,1.81,1.81l2.995.713-2.995.714a2.444,2.444,0,0,0-1.81,1.81l-.713,2.995-.714-2.995a2.443,2.443,0,0,0-1.81-1.81l-2.995-.714,2.995-.713a2.444,2.444,0,0,0,1.81-1.81Z" transform="translate(-139.447 -50)" fill="#fff"/>
    </g>
  </g>
</svg>
