<svg width="154" height="41" viewBox="0 0 154 41" fill="none" xmlns="http://www.w3.org/2000/svg">
<path fill-rule="evenodd" clip-rule="evenodd" d="M100.621 13.7805V13.3853L93.2773 20.5098V25.0373L97.5367 29.0985H108.771V24.4679H100.621V18.7685H108.771V13.7816H100.621V13.7805ZM115.374 14.1127L114.958 13.7095L110.092 18.4317V11.0734L114.352 6.87014H149.524V11.857H143.356V29.0985H135.867V17.5988L141.515 12.1182L141.516 12.1171L141.1 11.7138L135.867 16.7923V11.8559H117.363V15.7028H129.992V17.2391L123.238 23.7932L123.237 23.7943L123.238 23.7955L123.653 24.1976L129.992 18.0456V25.0362L125.587 29.0974H110.094V24.4668H122.356V20.5476H110.094V19.2359L115.374 14.1127ZM100.621 12.5787V11.857H108.771V6.87014H97.5367L93.2773 11.0734V19.7045L100.621 12.5787ZM87.8812 29.0985H76.1324L72.0945 25.0373V17.5885L79.5107 10.3929V24.4679H84.504V6.87014H91.8473V20.7023L88.072 24.366L88.0708 24.3671L88.4866 24.7704L91.8473 21.5088V25.0396L90.343 26.5805L90.3419 26.5816L87.8812 29.0985ZM79.5107 9.5864V6.869H72.0945V16.782L79.5107 9.5864ZM49.3885 16.2676L49.8043 16.672L46.6498 19.74V26.3639L51.7149 31.2844H58.4692L63.1798 35.8588H71.6221L66.2896 30.5935L70.5549 26.3639V18.9449L64.7335 24.6066L64.3177 24.2022L70.5549 18.1361V9.44663L65.3119 4.35438H51.7149L46.6498 9.44663V18.9312L49.3885 16.2676ZM35.1013 13.2822L35.5171 13.6854L35.516 13.6866L29.6263 19.402V25.0385L33.8857 29.0997H45.1197V24.4691H36.9695V18.7697H45.1197V13.7828H36.9695V11.8593H45.1197V6.87244H33.8857L29.6263 11.0757V18.5978L35.1013 13.2822ZM23.9745 24.6054L23.5587 24.201L28.1574 19.7285V9.48902L22.9544 4.35438H4.47612V22.4837L9.5707 17.529L9.9865 17.9334L4.47612 23.2925V31.51H22.9544L28.1574 26.5484V20.5385L23.9745 24.6054ZM95.1443 4.66025V3.66127H82.8078H69.2674L66.6771 1.14551H50.3167L47.8136 3.66127H32.5028L29.6922 6.43481L24.3326 1.14551H1.17554V34.7166H24.2996L29.6816 29.5843L32.5358 32.3062H48.0999L50.3485 34.4909H57.1028L61.8134 39.0654H79.4989L70.9142 30.5878L71.9767 29.5339L74.733 32.3051H89.2971L92.62 28.9015L96.1891 32.3051H126.9L132.567 27.0811V32.3051H146.653V15.0636H152.821V3.66127H112.97L112.068 4.55142V3.66127H96.1562L95.1443 4.66025Z" fill="#252534"/>
<path fill-rule="evenodd" clip-rule="evenodd" d="M0 0H24.8274L29.6934 4.80357L32.0105 2.51691H47.3154L49.8185 0.00114673H67.166L69.7563 2.51691H154V16.2105H147.832V33.452H131.391V29.7471L127.372 33.452H95.7086L92.6507 30.5364L89.8036 33.452H75.4693L82.3143 40.2111H61.3281L56.6176 35.6367H49.8633L47.6146 33.452H32.0564L29.6828 31.1894L24.7826 35.8624H0V0ZM32.537 32.3075L29.6828 29.5855L24.3008 34.7179H1.17676V1.14676H24.3338L29.6934 6.43607L32.504 3.66253H47.8148L50.3179 1.14676H66.6783L69.2686 3.66253H95.1444V4.66151L96.1562 3.66253H112.069V4.55268L112.971 3.66253H152.822V15.0648H146.654V32.3064H132.569V27.0824L126.902 32.3064H96.1904L92.6212 28.9027L89.2982 32.3064H74.7342L71.9779 29.5351L70.9154 30.5891L79.5002 39.0666H61.8146L57.104 34.4922H50.3498L48.1011 32.3075H32.537Z" fill="#333345"/>
<path fill-rule="evenodd" clip-rule="evenodd" d="M5.6541 23.7658V30.3634H22.4739L26.9795 26.0662V23.303L23.9746 26.2254L21.8931 24.2011L26.9795 19.2544V9.95884L22.4621 5.5001H5.65528V19.7172L9.57192 15.908L11.6533 17.9323L5.6541 23.7658ZM20.3654 26.9976V9.30125H12.0892V26.9976H20.3654Z" fill="#4A4A60"/>
<path d="M35.7904 12.3325V10.7115H43.9406V8.01587H34.3769L30.8031 11.5432V15.8336L35.1002 11.6635L35.7904 12.3325Z" fill="#4A4A60"/>
<path d="M43.9418 25.6137H35.7916V17.623H43.9418V14.9274H35.9059L30.8042 19.8776V24.5574L34.3663 27.9542H43.9418V25.6137Z" fill="#4A4A60"/>
<path d="M47.829 20.2144L51.4711 16.6721L49.3897 14.6478L47.829 16.1658V9.90958L52.2156 5.49896H64.8254L69.3782 9.92103V17.6608L62.7581 24.0992V9.2497H54.2699V26.8189H62.7581V24.3031L64.7347 26.2254L69.3782 21.7094V25.8955L64.6381 30.5948L68.808 34.7122H63.6663L58.9558 30.1377H52.2015L47.8266 25.8886V20.2144H47.829Z" fill="#4A4A60"/>
<path d="M78.3328 9.11108L73.2724 14.0212V8.01472H78.3328V9.11108Z" fill="#4A4A60"/>
<path d="M73.2724 18.0641V24.5746L76.6331 27.953H87.3759L89.4867 25.7901L89.4879 25.789L89.4903 25.7867L90.6682 24.5803V24.2687L88.4855 26.387L86.4029 24.3661L87.2392 23.5527L90.6694 20.2247V8.01587H85.682V25.6137H78.3328V13.154L73.2724 18.0641Z" fill="#4A4A60"/>
<path d="M101.799 10.7115V10.6244L101.709 10.7115H99.4427V12.1046L94.4553 16.9437V11.5432L98.0291 8.01587H107.593V10.7115H101.799Z" fill="#4A4A60"/>
<path d="M94.4564 20.9854V24.5563L98.0185 27.953H107.594V25.6137H99.4438V17.623H107.594V14.9274H100.701L94.4564 20.9854Z" fill="#4A4A60"/>
<path d="M116.185 13.28V10.7115H137.045V14.0315L141.1 10.0963L142.178 11.1423V10.7115H148.346V8.01587H114.844L111.27 11.5432V15.6709L114.958 12.092L116.185 13.28Z" fill="#4A4A60"/>
<path d="M123.534 21.8904L128.727 16.8509H116.185V14.9457L111.59 19.4044H123.534V21.8904Z" fill="#4A4A60"/>
<path d="M123.442 25.6137L123.652 25.8176L128.813 20.809V24.546L125.116 27.9542H111.27V25.6148H123.442V25.6137Z" fill="#4A4A60"/>
<path d="M142.178 13.0932L137.045 18.0744V27.953H142.178V13.0932Z" fill="#4A4A60"/>
<path fill-rule="evenodd" clip-rule="evenodd" d="M13.2671 10.4469H19.1874V25.852H13.2671V10.4469ZM55.449 10.3953V25.6732H61.5814V10.3953H55.449ZM20.3654 26.9976V9.30125H12.0892V26.9976H20.3654ZM123.652 25.8176L123.442 25.6137V25.6148H111.27V27.9542H125.116L128.813 24.546V20.809L123.652 25.8176ZM137.045 18.0744L142.178 13.0932V27.953H137.045V18.0744ZM116.185 10.7115V13.28L114.958 12.092L111.27 15.6709V11.5432L114.844 8.01587H148.346V10.7115H142.178V11.1423L141.1 10.0963L137.045 14.0315V10.7115H116.185ZM128.727 16.8509L123.534 21.8904V19.4044H111.59L116.185 14.9457V16.8509H128.727ZM110.094 29.0986V24.4681H122.355V20.5489H110.092V19.2372L115.374 14.1128L114.958 13.7096L110.092 18.4318V11.0735L114.352 6.87025H149.524V11.8571H143.356V29.0986H135.867V17.5989L141.514 12.1195L141.515 12.1183L141.516 12.1172L141.102 11.7151L141.1 11.7139L141.099 11.7151L141.098 11.7162L135.866 16.7936V11.8571H117.361V15.7041H129.991V17.2404L123.237 23.7944L123.236 23.7956L123.237 23.7967L123.652 24.1988L123.662 24.1885L129.992 18.0469V25.0374L125.587 29.0986H110.094ZM101.799 10.6244V10.7115H107.593V8.01587H98.0291L94.4553 11.5432V16.9437L99.4427 12.1046V10.7115H101.709L101.799 10.6244ZM100.622 12.58L93.2785 19.7046V11.0747L97.5379 6.8714H108.772V11.8583H100.622V12.58ZM94.4564 24.5563V20.9854L100.701 14.9274H107.594V17.623H99.4438V25.6137H107.594V27.953H98.0185L94.4564 24.5563ZM97.5379 29.0986L93.2785 25.0374V20.5111L100.622 13.3865V13.7818H108.772V18.7686H100.622V24.4681H108.772V29.0986H97.5379ZM73.2724 14.0212L78.3328 9.11108V8.01472H73.2724V14.0212ZM79.5108 9.58766L72.0945 16.7833V6.87025H79.5108V9.58766ZM73.2724 24.5746V18.0641L78.3328 13.154V25.6137H85.682V8.01587H90.6694V20.2247L87.2392 23.5527L86.4029 24.3661L88.4855 26.387L90.6682 24.2687V24.5803L89.4903 25.7867L89.4879 25.789L89.4867 25.7901L87.3759 27.953H76.6331L73.2724 24.5746ZM76.1325 29.0986L72.0945 25.0374H72.0933V17.5886L79.5096 10.393V24.4681H84.5029V6.87025H91.8461V20.699L88.0708 24.3627L88.0697 24.3638L88.4855 24.7671L91.8461 21.5066V25.0374L90.3419 26.5783L90.3407 26.5794L87.8812 29.0986H76.1325ZM51.4711 16.6721L47.829 20.2144H47.8266V25.8886L52.2015 30.1377H58.9558L63.6663 34.7122H68.808L64.6381 30.5948L69.3782 25.8955V21.7094L64.7347 26.2254L62.7581 24.3031V26.8189H54.2699V9.2497H62.7581V24.0992L69.3782 17.6608V9.92103L64.8254 5.49896H52.2156L47.829 9.90958V16.1658L49.3897 14.6478L51.4711 16.6721ZM46.651 26.3641V19.7401L49.8055 16.6721L49.3897 16.2677L46.651 18.9313V9.44674L51.7162 4.35449H65.3131L70.5561 9.44674V18.1362L64.3189 24.2023L64.7347 24.6067L70.5561 18.945V26.3641L66.2908 30.5937L71.6233 35.8589H63.181L58.4705 31.2845H51.7162L46.651 26.3641ZM35.7904 10.7115V12.3325L35.1002 11.6635L30.8031 15.8336V11.5432L34.3769 8.01587H43.9406V10.7115H35.7904ZM35.7916 25.6137H43.9418V27.9542H34.3663L30.8042 24.5574V19.8776L35.9059 14.9274H43.9418V17.623H35.7916V25.6137ZM36.9684 18.7686V24.4681V24.4703H45.1197V29.1009H33.8857L29.6263 25.0397V19.4033L35.516 13.6878L35.5172 13.6867L35.1014 13.2834L35.1002 13.2846L29.6251 18.5968V11.0747L33.8845 6.8714H45.1185V11.8583H36.9684V13.7818H45.1185V18.7686H36.9684ZM5.6541 30.3634V23.7658L11.6533 17.9323L9.57192 15.908L5.65528 19.7172V5.5001H22.4621L26.9795 9.95884V19.2544L21.8931 24.2011L23.9746 26.2254L26.9795 23.303V26.0662L22.4739 30.3634H5.6541ZM22.9545 31.509H4.47616V23.2927L9.98654 17.9335L9.57074 17.5291L4.47616 22.4839V4.35449H22.9545L28.1574 9.48913V19.7286L23.5588 24.2011L23.9746 24.6055L28.1574 20.5374V26.5474L22.9545 31.509Z" fill="#4A4A60"/>
</svg>
