<svg width="142" height="25" viewBox="0 0 142 25" xmlns="http://www.w3.org/2000/svg"><defs><linearGradient x1="1.876%" y1="100.389%" x2="96.528%" y2="3.069%" id="a"><stop stop-color="#7742F1" offset="0%"/><stop stop-color="#6BC4FF" offset="56%"/><stop stop-color="#5EE4DF" offset="79%"/><stop stop-color="#54FDC6" offset="100%"/></linearGradient></defs><g fill="none"><path d="M32.319 4.61h1.837v2.828h-1.837V4.609v.001Zm0 4.386h1.837v9.644h-1.837V8.996Zm5.787 1.292h-.077V8.996h-1.793v9.644h1.832v-4.81a3.449 3.449 0 0 1 .822-2.384 2.76 2.76 0 0 1 2.135-.93 2.408 2.408 0 0 1 1.925.819 3.12 3.12 0 0 1 .701 2.11v5.195h1.837v-5.53a4.48 4.48 0 0 0-1.103-3.19 3.83 3.83 0 0 0-2.957-1.197 3.974 3.974 0 0 0-1.849.376 4.012 4.012 0 0 0-1.473 1.188v.001Zm9.48-.557a2.517 2.517 0 0 0-.762 1.893 2.56 2.56 0 0 0 .551 1.67c.398.485.95.814 1.562.93l3.961.875c.197.033.374.14.495.298.122.16.18.359.162.56a.924.924 0 0 1-.232.656.789.789 0 0 1-.596.24h-5.545v1.787h5.59a2.637 2.637 0 0 0 1.947-.769c.517-.51.797-1.212.772-1.937a2.497 2.497 0 0 0-.59-1.67 2.848 2.848 0 0 0-1.589-.936l-3.945-.902a.738.738 0 0 1-.481-.28.751.751 0 0 1-.153-.538.79.79 0 0 1 .22-.59.795.795 0 0 1 .59-.229h5.275V8.996h-5.313a2.684 2.684 0 0 0-1.92.735h.001Zm11.782.919h-.078V8.98h-1.776v9.66h1.837v-4.633a3.225 3.225 0 0 1 .789-2.299 2.79 2.79 0 0 1 2.108-.863h1.401V8.996h-1.424c-1.416 0-2.376.554-2.88 1.66l.023-.006Zm7.514-1.67V5.584h-1.837v10.645a2.414 2.414 0 0 0 .629 1.793c.49.436 1.133.658 1.787.618h3.31v-1.804h-2.967a.837.837 0 0 1-.716-.251.855.855 0 0 1-.228-.73V10.79h3.934V8.996l-3.912-.016Zm15.686-4.37h-3.355c-.65-.028-1.28.22-1.736.684a2.34 2.34 0 0 0-.675 1.754V18.64h1.832v-7.85h3.934V8.996h-3.934V7.36a.864.864 0 0 1 .242-.729c.19-.19.458-.28.724-.24h2.968V4.609v.001Zm1.512 2.566h1.837V4.609H84.08v2.567Zm0 11.47h1.837v-9.65H84.08v9.65Zm5.412-8.352h-.077V8.996h-1.793v9.644h1.826v-4.81a3.45 3.45 0 0 1 .822-2.384 2.736 2.736 0 0 1 2.135-.93 2.407 2.407 0 0 1 1.926.819c.484.592.734 1.343.701 2.11v5.195h1.837v-5.53a4.477 4.477 0 0 0-1.104-3.19 3.832 3.832 0 0 0-2.957-1.197 3.973 3.973 0 0 0-1.845.377 4.013 4.013 0 0 0-1.47 1.187v.006l-.001.001Zm16.938.094a4.061 4.061 0 0 0-1.504-1.263 4.032 4.032 0 0 0-1.916-.407 4.585 4.585 0 0 0-1.897.326c-.604.242-1.15.61-1.601 1.077a5.128 5.128 0 0 0-1.369 3.686 5.102 5.102 0 0 0 1.38 3.702 4.457 4.457 0 0 0 3.47 1.403 3.965 3.965 0 0 0 1.945-.438 4.004 4.004 0 0 0 1.492-1.332h.078v1.498h1.815V8.996h-1.815V10.4l-.078-.012Zm-5.544 5.785a3.286 3.286 0 0 1-.911-2.361 3.33 3.33 0 0 1 .221-1.272 3.144 3.144 0 0 1 3.045-2.04 3.07 3.07 0 0 1 2.329.952 3.36 3.36 0 0 1 .894 2.36c.02.873-.3 1.72-.894 2.361a3.07 3.07 0 0 1-2.329.952 3.128 3.128 0 0 1-2.355-.952Zm10.913-5.885h-.077V8.996h-1.799v9.644h1.837v-4.81c-.038-.87.254-1.72.817-2.384.54-.61 1.32-.95 2.135-.93a2.404 2.404 0 0 1 1.926.819c.486.59.737 1.343.706 2.11v5.195h1.832v-5.53a4.482 4.482 0 0 0-1.104-3.19 3.86 3.86 0 0 0-2.957-1.197 3.965 3.965 0 0 0-1.846.376 3.999 3.999 0 0 0-1.47 1.188v.001Zm16.822-.5a4.936 4.936 0 0 0-3.183-1.064 4.833 4.833 0 0 0-1.979.344c-.63.253-1.2.634-1.674 1.12a5.013 5.013 0 0 0-1.412 3.625 5.04 5.04 0 0 0 1.412 3.635 5.257 5.257 0 0 0 6.836.39 4.646 4.646 0 0 0 1.683-2.756h-1.903a2.786 2.786 0 0 1-1.104 1.498 3.125 3.125 0 0 1-1.848.556 3.045 3.045 0 0 1-2.345-.951 3.352 3.352 0 0 1-.899-2.373 3.32 3.32 0 0 1 .899-2.36 3.083 3.083 0 0 1 2.345-.952 3.096 3.096 0 0 1 1.848.556c.506.355.892.859 1.104 1.443h1.909a4.558 4.558 0 0 0-1.689-2.712v.001Zm4.127.411a5.063 5.063 0 0 0-1.368 3.63 5.105 5.105 0 0 0 1.374 3.62 4.72 4.72 0 0 0 3.592 1.47 5 5 0 0 0 2.935-.875 4.547 4.547 0 0 0 1.738-2.4h-1.915a2.467 2.467 0 0 1-1.043 1.114 3.236 3.236 0 0 1-1.655.412 3.132 3.132 0 0 1-2.124-.757 2.729 2.729 0 0 1-.965-1.91h7.9a5.494 5.494 0 0 0-1.186-4.092 4.607 4.607 0 0 0-1.669-1.274 4.571 4.571 0 0 0-2.055-.397 4.671 4.671 0 0 0-3.553 1.459h-.006Zm5.457.941c.525.417.885 1.01 1.015 1.67h-5.865a2.839 2.839 0 0 1 1.004-1.67 2.903 2.903 0 0 1 1.909-.651 2.994 2.994 0 0 1 1.942.651h-.005Z" fill="#FFF"/><path d="M23.792 11.497c.001 2.276-.667 4.5-1.918 6.392a11.422 11.422 0 0 1-5.115 4.24c-2.08.87-4.374 1.1-6.586.656a11.367 11.367 0 0 1-5.838-3.147 11.535 11.535 0 0 1-3.121-5.89 11.6 11.6 0 0 1 .648-6.646A11.48 11.48 0 0 1 6.06 1.94 11.326 11.326 0 0 1 12.393 0c3.022 0 5.92 1.211 8.058 3.367a11.556 11.556 0 0 1 3.341 8.13Zm-4.359 4.092V7.4l-7.04-4.097L5.36 7.399v8.19l7.034 4.098 7.04-4.098h-.001Z" fill="url(#a)" transform="translate(0 .5)"/></g></svg>