<svg width="124" height="40" viewBox="0 0 124 40" fill="none" xmlns="http://www.w3.org/2000/svg">
<path d="M44.2969 14.6853H47.1991V15.7625L46.6826 17.4941H47.4254C48.0993 15.4723 49.5997 14.459 51.9215 14.459C53.4956 14.459 54.7352 15.0198 55.6452 16.1364C56.5503 17.253 57.0078 18.6599 57.0078 20.3521C57.0078 22.0295 56.5553 23.4265 55.6452 24.5333C54.7401 25.645 53.4956 26.1959 51.9215 26.1959C49.5997 26.1959 48.0993 25.1924 47.4254 23.1805H46.6826L47.1991 24.8875V30.1706H44.2969V14.6853ZM47.1991 20.3521C47.1991 21.4785 47.509 22.3148 48.1338 22.8608C48.7536 23.4068 49.6095 23.6823 50.6868 23.6823C51.7641 23.6823 52.6052 23.4068 53.2054 22.8608C53.8055 22.3148 54.1055 21.4785 54.1055 20.3521C54.1055 19.2108 53.8055 18.3647 53.2054 17.8089C52.6052 17.253 51.7641 16.9776 50.6868 16.9776C49.6095 16.9776 48.7585 17.253 48.1338 17.8089C47.509 18.3647 47.1991 19.2157 47.1991 20.3521Z" fill="#1A1D21"/>
<path d="M58.5078 20.1946C58.5078 18.4238 59.0391 17.0268 60.1065 15.9987C61.174 14.9706 62.5562 14.459 64.2681 14.459C65.975 14.459 67.3523 14.9558 68.3952 15.9446C69.438 16.9333 69.9595 18.2762 69.9595 19.9684V20.9128H61.2527C61.2822 21.7983 61.5724 22.5066 62.1184 23.0379C62.6644 23.5691 63.4958 23.8348 64.6026 23.8348C66.2062 23.8348 67.1605 23.2297 67.4606 22.0147H70.3628C70.1661 23.0477 69.5856 24.0069 68.6067 24.8825C67.6327 25.7581 66.2997 26.1959 64.6026 26.1959C62.6103 26.1959 61.0953 25.6253 60.0622 24.489C59.0243 23.3527 58.5078 21.9212 58.5078 20.1946ZM61.2527 19.1616H67.2097C67.2097 18.4877 66.9637 17.9319 66.4767 17.499C65.9898 17.0661 65.2519 16.8447 64.2632 16.8447C63.2744 16.8447 62.5218 17.0661 62.0151 17.5088C61.5085 17.9515 61.2527 18.5025 61.2527 19.1616Z" fill="#1A1D21"/>
<path d="M72.2266 25.9744V9.44629H75.1288V15.7673L74.6123 17.4988H75.3551C76.029 15.4771 77.5293 14.4638 79.8512 14.4638C81.4253 14.4638 82.6649 15.0196 83.5749 16.1264C84.48 17.2381 84.9375 18.6401 84.9375 20.3322C84.9375 22.0244 84.4849 23.4264 83.5749 24.5381C82.6698 25.6498 81.4253 26.2007 79.8512 26.2007C77.5293 26.2007 76.029 25.1972 75.3551 23.1853H74.6123L75.1288 24.8922V25.9695H72.2266V25.9744ZM76.0585 17.8137C75.4387 18.3695 75.1239 19.2058 75.1239 20.3322C75.1239 21.4587 75.4338 22.295 76.0585 22.8508C76.6783 23.4067 77.5343 23.6821 78.6115 23.6821C80.8891 23.6821 82.0303 22.5655 82.0303 20.3322C82.0303 18.099 80.8891 16.9823 78.6115 16.9823C77.5343 16.9774 76.6833 17.2578 76.0585 17.8137Z" fill="#1A1D21"/>
<path d="M86.7969 25.9744V9.44629H89.6991V15.7673L89.1826 17.4988H89.9254C90.5993 15.4771 92.0997 14.4638 94.4215 14.4638C95.9956 14.4638 97.2352 15.0196 98.1452 16.1264C99.0503 17.2381 99.5078 18.6401 99.5078 20.3322C99.5078 22.0244 99.0553 23.4264 98.1452 24.5381C97.2401 25.6498 95.9956 26.2007 94.4215 26.2007C92.0997 26.2007 90.5993 25.1972 89.9254 23.1853H89.1826L89.6991 24.8922V25.9695H86.7969V25.9744ZM90.6338 17.8137C90.014 18.3695 89.6991 19.2058 89.6991 20.3322C89.6991 21.4587 90.009 22.295 90.6338 22.8508C91.2536 23.4067 92.1095 23.6821 93.1868 23.6821C95.4643 23.6821 96.6055 22.5655 96.6055 20.3322C96.6055 18.099 95.4643 16.9823 93.1868 16.9823C92.1046 16.9774 91.2536 17.2578 90.6338 17.8137Z" fill="#1A1D21"/>
<path d="M101.367 25.9744V9.44629H104.269V25.9744H101.367Z" fill="#1A1D21"/>
<path d="M106.141 20.1946C106.141 18.4238 106.672 17.0268 107.739 15.9987C108.802 14.9706 110.189 14.459 111.901 14.459C113.608 14.459 114.985 14.9558 116.028 15.9446C117.071 16.9333 117.592 18.2762 117.592 19.9684V20.9128H108.89C108.92 21.7983 109.21 22.5066 109.756 23.0379C110.302 23.5691 111.134 23.8348 112.24 23.8348C113.844 23.8348 114.798 23.2297 115.098 22.0147H118.001C117.804 23.0477 117.223 24.0069 116.244 24.8825C115.27 25.7581 113.937 26.1959 112.24 26.1959C110.248 26.1959 108.733 25.6253 107.7 24.489C106.657 23.3527 106.141 21.9212 106.141 20.1946ZM108.881 19.1616H114.838C114.838 18.4877 114.592 17.9319 114.105 17.499C113.618 17.0661 112.88 16.8447 111.891 16.8447C110.902 16.8447 110.15 17.0661 109.643 17.5088C109.136 17.9515 108.881 18.5025 108.881 19.1616Z" fill="#1A1D21"/>
<path d="M15.6585 16.4391C21.2444 16.4642 30.038 12.085 31.6922 4.47293C27.8308 2.21545 19.902 3.04001 17.1819 3.76401C15.2864 4.26679 13.6323 4.83996 12.2195 5.59916C11.234 6.13211 10.3341 6.81589 9.6352 7.69073C6.38221 11.7884 9.74581 16.414 15.6585 16.4391Z" fill="#70E0A2"/>
<path d="M13.7104 28.199C15.249 23.3723 19.7539 23.5332 24.7012 21.507C26.5515 20.7478 28.9447 19.3852 30.8402 17.2937C33.1982 14.6893 34.8172 11.0692 33.9825 7.30844C33.8267 6.6146 33.3541 5.65429 32.615 5.14648C32.1574 12.7787 19.8343 22.7136 10.9753 18.5959C6.68661 16.6048 7.22961 11.3759 7.35028 11.0793C6.11344 14.2317 5.7263 18.7618 6.18885 25.5191C6.86761 35.4692 9.95971 38.5613 13.7306 37.8372C13.2579 35.8312 12.5742 31.7536 13.7104 28.199Z" fill="#35C375"/>
<path d="M15.0687 37.4355C17.0647 36.7266 18.8747 35.2032 20.911 33.0362C23.5857 30.1854 27.0851 25.9018 29.8353 21.4521C26.3711 24.4135 22.1277 24.675 19.2266 25.8967C15.6468 27.4151 13.9173 30.4016 15.0687 37.4355Z" fill="#289E5F"/>
</svg>
