<svg width="165" height="36" viewBox="0 0 165 36" fill="none" xmlns="http://www.w3.org/2000/svg">
<path d="M29.0909 0C31.0992 0 32.7273 1.61177 32.7273 3.6C32.7273 5.58822 34.3553 7.2 36.3636 7.2C38.3719 7.2 40 8.81177 40 10.8V25.2C40 27.1882 38.3719 28.8 36.3636 28.8C34.3553 28.8 32.7273 30.4118 32.7273 32.4C32.7273 34.3882 31.0992 36 29.0909 36H17.2727C15.2644 36 13.6364 34.3882 13.6364 32.4C13.6364 30.4118 15.2644 28.8 17.2727 28.8H29.0909C31.0992 28.8 32.7273 27.1882 32.7273 25.2V10.8C32.7273 8.81177 31.0992 7.2 29.0909 7.2H10.9091C8.90078 7.2 7.27273 8.81177 7.27273 10.8V25.2C7.27273 27.1882 5.64467 28.8 3.63636 28.8C1.62806 28.8 0 27.1882 0 25.2V10.8C0 8.81177 1.62806 7.2 3.63636 7.2C5.64467 7.2 7.27273 5.58822 7.27273 3.6C7.27273 1.61177 8.90078 0 10.9091 0H29.0909Z" fill="url(#paint0_linear_391_737)"/>
<path d="M26.3636 18C26.3636 16.0118 24.7356 14.4 22.7273 14.4H15.9091C15.156 14.4 14.5455 15.0044 14.5455 15.75V20.25C14.5455 20.9956 15.156 21.6 15.9091 21.6H22.7273C24.7356 21.6 26.3636 19.9882 26.3636 18Z" fill="url(#paint1_linear_391_737)"/>
<path d="M58.7526 28.6838V22.8346H65.0893C70.0003 22.8346 73.1687 20.0206 73.1687 15.1515C73.1687 10.2824 70.0003 7.5 65.0893 7.5H54V28.6838H58.7526ZM64.5824 11.7684C67.2121 11.7684 68.4478 12.5588 68.4478 15.1515C68.4478 17.8074 67.2121 18.5662 64.5824 18.5662H58.7526V11.7684H64.5824Z" fill="white"/>
<path d="M79.6069 28.6838V20.7478C79.6069 18.0919 80.5891 16.7956 83.7891 16.7956C86.7674 16.7956 87.908 17.7441 87.908 20.4V28.6838H92.6606V18.9772C92.6606 15.3096 90.5695 12.5272 86.2922 12.5272C82.2366 12.5272 80.3673 14.9934 79.8604 17.6809H79.6069V7.5H74.8543V28.6838H79.6069Z" fill="white"/>
<path d="M103.518 29C108.936 29 112.58 25.775 112.58 20.7794C112.58 15.7206 108.936 12.5272 103.518 12.5272C98.1005 12.5272 94.4569 15.7206 94.4569 20.7794C94.4569 25.775 98.1005 29 103.518 29ZM103.518 24.7949C100.287 24.7949 99.1778 23.5618 99.1778 20.7794C99.1778 17.9971 100.287 16.7007 103.518 16.7007C106.719 16.7007 107.859 17.9971 107.859 20.7794C107.859 23.5618 106.719 24.7949 103.518 24.7949Z" fill="white"/>
<path d="M125.705 28.6838V24.4154H122.854C121.174 24.4154 120.572 24.0044 120.572 22.4235V16.764H125.705V12.8434H120.572V9.77647H115.82V12.8434H113.317V16.764H115.82V22.961C115.82 26.9449 118.069 28.6838 121.776 28.6838H125.705Z" fill="white"/>
<path d="M135.945 29C141.363 29 145.006 25.775 145.006 20.7794C145.006 15.7206 141.363 12.5272 135.945 12.5272C130.527 12.5272 126.883 15.7206 126.883 20.7794C126.883 25.775 130.527 29 135.945 29ZM135.945 24.7949C132.713 24.7949 131.604 23.5618 131.604 20.7794C131.604 17.9971 132.713 16.7007 135.945 16.7007C139.145 16.7007 140.285 17.9971 140.285 20.7794C140.285 23.5618 139.145 24.7949 135.945 24.7949Z" fill="white"/>
<path d="M151.7 28.6838V20.6846C151.7 17.9971 152.777 16.7956 155.787 16.7956C158.702 16.7956 159.747 17.8706 159.747 20.4V28.6838H164.5V18.8191C164.5 15.3096 162.441 12.5272 158.1 12.5272C153.949 12.5272 152.048 15.0566 151.636 17.7125H151.351V12.8434H146.947V28.6838H151.7Z" fill="white"/>
<defs>
<linearGradient id="paint0_linear_391_737" x1="2.09942e-06" y1="36" x2="43.9371" y2="5.71111" gradientUnits="userSpaceOnUse">
<stop stop-color="#00FF85"/>
<stop offset="1" stop-color="#F5E659"/>
</linearGradient>
<linearGradient id="paint1_linear_391_737" x1="2.09942e-06" y1="36" x2="43.9371" y2="5.71111" gradientUnits="userSpaceOnUse">
<stop stop-color="#00FF85"/>
<stop offset="1" stop-color="#F5E659"/>
</linearGradient>
</defs>
</svg>
